<?xml version="1.0" encoding="utf-8"?>
<svg width="150px" height="198px" viewBox="0 0 150 198" version="1.1" xmlns="http://www.w3.org/2000/svg" xmlns:bx="https://boxy-svg.com">
  <title>Tony Stark</title>
  <desc>Created with Sketch.</desc>
  <defs>
    <path d="M111.665624,9.51762635 C112.032188,9.50775899 112.401562,9.5149944 112.773332,9.53896691 L121.387249,20.9806791 L130.069129,21.1169565 C133.499193,25.5584712 136.548748,31.0793859 138.824006,37.3306072 C143.179603,49.2975121 143.641213,61.0381635 140.750883,68.9007602 C143.16362,70.0520482 145.422034,71.3529893 145.910549,72.3706634 C148.679971,75.2725591 150.264182,79.4721531 149.956869,84.1435583 C149.380764,92.9008292 142.375379,100 134.309905,100 C133.457602,100 132.627568,99.9207252 131.825293,99.7685961 C117.999191,117.707191 97.8875215,129 75.5,129 C53.2121047,129 33.1798509,117.807475 19.359662,100.007685 C19.2847521,99.9112045 19.2100247,99.8145297 19.1354804,99.7176615 C18.2545812,99.90299 17.338999,100 16.3961669,100 C8.33069254,100 1.3253081,92.9008292 0.749202792,84.1435583 C0.439844916,79.441066 2.04726994,75.2166855 4.85097003,72.3129018 C4.86669087,71.600899 6.10465158,70.8844799 7.53561467,70.1637837 C8.12155607,69.8086181 8.73639782,69.4990414 9.37654648,69.2392553 C6.34625623,61.3775137 6.75744114,49.4704811 11.1759939,37.3306072 C13.6286462,30.5920003 16.98104,24.7020182 20.7399135,20.0979387 L28.2102175,19.9806791 L35.9708674,9.67235337 L35.9788795,9.66171106 L36.0197681,9.66458975 L47.063999,10.4421402 L41.4523233,10.0470596 C39.7366119,9.49047281 37.92273,9.37871131 36.0606567,9.66746844 L47.063999,10.4421402 L51.2176917,6.70913405 L55.3713843,2.97612791 L59.4782452,5.46657546 L63.585106,7.957023 L69.3498343,4.20442695 L75.1145627,0.451830889 L80.879291,4.20442695 L86.6440193,7.957023 L90.5288256,5.6012319 L94.4136318,3.2454408 L102.421354,10.4421402 L108.69491,10.0004611 C109.127965,9.86681304 109.567143,9.76124103 110.011648,9.68303946 L111.665624,9.51762634 Z" id="path-1"/>
    <mask id="mask-2" maskContentUnits="userSpaceOnUse" maskUnits="objectBoundingBox" x="0" y="0" width="149.283334" height="128.548169" fill="white">
      <path d="M111.665624,9.51762635 C112.032188,9.50775899 112.401562,9.5149944 112.773332,9.53896691 L121.387249,20.9806791 L130.069129,21.1169565 C133.499193,25.5584712 136.548748,31.0793859 138.824006,37.3306072 C143.179603,49.2975121 143.641213,61.0381635 140.750883,68.9007602 C143.16362,70.0520482 145.422034,71.3529893 145.910549,72.3706634 C148.679971,75.2725591 150.264182,79.4721531 149.956869,84.1435583 C149.380764,92.9008292 142.375379,100 134.309905,100 C133.457602,100 132.627568,99.9207252 131.825293,99.7685961 C117.999191,117.707191 97.8875215,129 75.5,129 C53.2121047,129 33.1798509,117.807475 19.359662,100.007685 C19.2847521,99.9112045 19.2100247,99.8145297 19.1354804,99.7176615 C18.2545812,99.90299 17.338999,100 16.3961669,100 C8.33069254,100 1.3253081,92.9008292 0.749202792,84.1435583 C0.439844916,79.441066 2.04726994,75.2166855 4.85097003,72.3129018 C4.86669087,71.600899 6.10465158,70.8844799 7.53561467,70.1637837 C8.12155607,69.8086181 8.73639782,69.4990414 9.37654648,69.2392553 C6.34625623,61.3775137 6.75744114,49.4704811 11.1759939,37.3306072 C13.6286462,30.5920003 16.98104,24.7020182 20.7399135,20.0979387 L28.2102175,19.9806791 L35.9708674,9.67235337 L35.9788795,9.66171106 L36.0197681,9.66458975 L47.063999,10.4421402 L41.4523233,10.0470596 C39.7366119,9.49047281 37.92273,9.37871131 36.0606567,9.66746844 L47.063999,10.4421402 L51.2176917,6.70913405 L55.3713843,2.97612791 L59.4782452,5.46657546 L63.585106,7.957023 L69.3498343,4.20442695 L75.1145627,0.451830889 L80.879291,4.20442695 L86.6440193,7.957023 L90.5288256,5.6012319 L94.4136318,3.2454408 L102.421354,10.4421402 L108.69491,10.0004611 C109.127965,9.86681304 109.567143,9.76124103 110.011648,9.68303946 L111.665624,9.51762634 Z" transform="matrix(1, 0, 0, 1, 0, 0)"/>
    </mask>
    <path d="M112.146587,9.7500996 C112.215013,9.75338079 112.283524,9.75723403 112.352117,9.76165701 L120.966034,21.2033692 L129.647914,21.3396466 C133.077978,25.7811613 136.127532,31.302076 138.402791,37.5532973 C139.093257,39.4503365 139.685867,41.34169 140.182782,43.2128101 C140.430867,44.2625857 140.650818,45.3282545 140.841319,46.4086383 C142.367708,55.0652219 141.7943,63.4807417 139.550168,70.8539059 C132.637118,72.6691604 126.613681,77.4752728 123.03757,83.6688811 C122.394678,78.5151373 121.559945,73.2611242 120.526025,67.9420709 C118.426689,57.1419245 115.666398,46.8980267 112.412643,37.4607771 C100.733437,41.1610756 87.7525973,43.2226901 74.0787848,43.2226901 C60.0978773,43.2226901 46.841419,41.0674337 34.960007,37.2089915 C34.8956614,39.4543323 34.8737764,41.7416334 34.8952193,44.0667345 C32.567423,51.6179629 30.555795,59.614669 28.937112,67.9420709 C27.9279899,73.1335544 27.108614,78.2630801 26.4721546,83.2978933 C22.9500494,76.8059882 16.761023,71.7369322 9.55866525,69.6307127 C9.68976776,69.5723222 9.82200058,69.5160538 9.95533123,69.4619454 C6.92504098,61.6002038 7.3362259,49.6931712 11.7547786,37.5532973 C14.207431,30.8146904 17.5598247,24.9247083 21.3186983,20.3206288 L28.7890023,20.2033692 L36.5479526,9.95412074 L46.6427838,10.6648303 L46.7154302,10.5995415 L40.7355312,10.1785368 C40.8343722,10.2074892 40.9329009,10.2378908 41.031108,10.2697497 L46.6427838,10.6648303 L46.7154302,10.5995415 L47.6427838,10.6648303 L51.7964764,6.93182415 L55.547273,3.5609087 L59.0570299,5.68926556 L63.1638908,8.17971311 L63.6461766,7.86576529 L64.1638908,8.17971311 L69.9286191,4.42711705 L75.1933474,1 L80.4580757,4.42711705 L86.2228041,8.17971311 L86.7405182,7.86576529 L87.2228041,8.17971311 L91.1076103,5.82392201 L94.3953126,3.83022159 L102.000139,10.6648303 L102.927493,10.5995415 L103.000139,10.6648303 L109.273695,10.2231512 C109.70675,10.0895032 110.145928,9.98393114 110.590433,9.90572957 L112.146587,9.7500996 Z" id="path-3"/>
    <mask id="mask-4" maskContentUnits="userSpaceOnUse" maskUnits="objectBoundingBox" x="0" y="0" width="133.695336" height="82.6688811" fill="white">
      <path d="M112.146587,9.7500996 C112.215013,9.75338079 112.283524,9.75723403 112.352117,9.76165701 L120.966034,21.2033692 L129.647914,21.3396466 C133.077978,25.7811613 136.127532,31.302076 138.402791,37.5532973 C139.093257,39.4503365 139.685867,41.34169 140.182782,43.2128101 C140.430867,44.2625857 140.650818,45.3282545 140.841319,46.4086383 C142.367708,55.0652219 141.7943,63.4807417 139.550168,70.8539059 C132.637118,72.6691604 126.613681,77.4752728 123.03757,83.6688811 C122.394678,78.5151373 121.559945,73.2611242 120.526025,67.9420709 C118.426689,57.1419245 115.666398,46.8980267 112.412643,37.4607771 C100.733437,41.1610756 87.7525973,43.2226901 74.0787848,43.2226901 C60.0978773,43.2226901 46.841419,41.0674337 34.960007,37.2089915 C34.8956614,39.4543323 34.8737764,41.7416334 34.8952193,44.0667345 C32.567423,51.6179629 30.555795,59.614669 28.937112,67.9420709 C27.9279899,73.1335544 27.108614,78.2630801 26.4721546,83.2978933 C22.9500494,76.8059882 16.761023,71.7369322 9.55866525,69.6307127 C9.68976776,69.5723222 9.82200058,69.5160538 9.95533123,69.4619454 C6.92504098,61.6002038 7.3362259,49.6931712 11.7547786,37.5532973 C14.207431,30.8146904 17.5598247,24.9247083 21.3186983,20.3206288 L28.7890023,20.2033692 L36.5479526,9.95412074 L46.6427838,10.6648303 L46.7154302,10.5995415 L40.7355312,10.1785368 C40.8343722,10.2074892 40.9329009,10.2378908 41.031108,10.2697497 L46.6427838,10.6648303 L46.7154302,10.5995415 L47.6427838,10.6648303 L51.7964764,6.93182415 L55.547273,3.5609087 L59.0570299,5.68926556 L63.1638908,8.17971311 L63.6461766,7.86576529 L64.1638908,8.17971311 L69.9286191,4.42711705 L75.1933474,1 L80.4580757,4.42711705 L86.2228041,8.17971311 L86.7405182,7.86576529 L87.2228041,8.17971311 L91.1076103,5.82392201 L94.3953126,3.83022159 L102.000139,10.6648303 L102.927493,10.5995415 L103.000139,10.6648303 L109.273695,10.2231512 C109.70675,10.0895032 110.145928,9.98393114 110.590433,9.90572957 L112.146587,9.7500996 Z" transform="matrix(1, 0, 0, 1, 0, 0)"/>
    </mask>
    <path d="M23,19 C29.627417,19 35,12.7614237 35,10 C35,7.23857625 29.627417,6 23,6 C16.372583,6 11,7.23857625 11,10 C11,12.7614237 16.372583,19 23,19 Z" id="path-5"/>
    <mask id="mask-6" maskContentUnits="userSpaceOnUse" maskUnits="objectBoundingBox" x="0" y="0" width="24" height="13" fill="white">
      <path d="M23,19 C29.627417,19 35,12.7614237 35,10 C35,7.23857625 29.627417,6 23,6 C16.372583,6 11,7.23857625 11,10 C11,12.7614237 16.372583,19 23,19 Z" transform="matrix(1, 0, 0, 1, 0, 0)"/>
    </mask>
    <path d="M11.3610146,10.0800116 C14.4991964,8.82388671 18.5620366,8 23,8 C27.5663037,8 31.7354744,8.87222726 34.9089091,10.1900632 C37.9941562,12.2906607 41.0258598,14 42,14 C44.209139,14 46,12.209139 46,10 C46,8.80192129 45.4732719,7.72686652 44.6387559,6.99377591 C44.455237,6.72075191 44.2512719,6.45732025 44.0247797,6.20448363 C40.0809439,1.80192171 29.1422248,-5.68434189e-14 22.5,-5.68434189e-14 C16.997005,-5.68434189e-14 7.91593602,2.73540239 3.3107488,6.05916134 C1.43006372,6.38580338 0,8.02589705 0,10 C0,12.209139 1.790861,14 4,14 C5.26156375,14 8.66953342,12.1115066 11.3610146,10.0800116 Z M35.7218188,28.70716 C34.5496161,29.5738186 33.3186518,29.9168569 32.2188471,29.5595086 C30.1723102,28.8945485 29.1838418,26.0006206 29.573991,22.5184584 C27.5375149,22.8293091 25.320015,23 23,23 C20.679985,23 18.4624851,22.8293091 16.426009,22.5184584 C16.8161582,26.0006206 15.8276898,28.8945485 13.7811529,29.5595086 C12.1215198,30.0987561 10.1632157,29.0431134 8.55886413,27 L8.55488963,27 C7.63866587,25.2223652 6.60334632,23.2788139 6.45775138,22.8561074 C5.23037829,19.2926691 3.9261104,18.8042204 2.31102499,19.2980016 C0.695939581,19.7917827 0.17713779,23.1433305 1.15224876,26.783893 C1.48204071,28.0151664 1.96386931,29.1146544 2.52941143,30.0085727 C2.689205,30.5774942 2.93210896,31.1286796 3.37338888,31.6603465 C7.5652461,36.7108182 15.3033645,40 22.5,40 C29.4305045,40 36.7368605,36.9495876 40.949521,32.2133416 C41.9896271,31.0439623 42.4352597,29.7718151 42.9022493,28.4174384 C43.0685338,28.0202037 43.2189242,27.6009584 43.3501305,27.1632555 C43.3709085,27.1089505 43.3919986,27.0545317 43.4134365,27 L43.3979294,27 C43.4183879,26.9284313 43.4383332,26.8563906 43.4577514,26.783893 C44.4328623,23.1433305 43.9140606,19.7917827 42.2989751,19.2980016 C40.6838897,18.8042204 38.3796218,21.2926691 37.1522488,24.8561074 C36.8436528,25.7520556 36.2531007,27.2231225 35.7218188,28.70716 Z" id="path-7"/>
    <mask id="mask-8" maskContentUnits="userSpaceOnUse" maskUnits="objectBoundingBox" x="0" y="0" width="46" height="40" fill="white">
      <path d="M11.3610146,10.0800116 C14.4991964,8.82388671 18.5620366,8 23,8 C27.5663037,8 31.7354744,8.87222726 34.9089091,10.1900632 C37.9941562,12.2906607 41.0258598,14 42,14 C44.209139,14 46,12.209139 46,10 C46,8.80192129 45.4732719,7.72686652 44.6387559,6.99377591 C44.455237,6.72075191 44.2512719,6.45732025 44.0247797,6.20448363 C40.0809439,1.80192171 29.1422248,-5.68434189e-14 22.5,-5.68434189e-14 C16.997005,-5.68434189e-14 7.91593602,2.73540239 3.3107488,6.05916134 C1.43006372,6.38580338 0,8.02589705 0,10 C0,12.209139 1.790861,14 4,14 C5.26156375,14 8.66953342,12.1115066 11.3610146,10.0800116 Z M35.7218188,28.70716 C34.5496161,29.5738186 33.3186518,29.9168569 32.2188471,29.5595086 C30.1723102,28.8945485 29.1838418,26.0006206 29.573991,22.5184584 C27.5375149,22.8293091 25.320015,23 23,23 C20.679985,23 18.4624851,22.8293091 16.426009,22.5184584 C16.8161582,26.0006206 15.8276898,28.8945485 13.7811529,29.5595086 C12.1215198,30.0987561 10.1632157,29.0431134 8.55886413,27 L8.55488963,27 C7.63866587,25.2223652 6.60334632,23.2788139 6.45775138,22.8561074 C5.23037829,19.2926691 3.9261104,18.8042204 2.31102499,19.2980016 C0.695939581,19.7917827 0.17713779,23.1433305 1.15224876,26.783893 C1.48204071,28.0151664 1.96386931,29.1146544 2.52941143,30.0085727 C2.689205,30.5774942 2.93210896,31.1286796 3.37338888,31.6603465 C7.5652461,36.7108182 15.3033645,40 22.5,40 C29.4305045,40 36.7368605,36.9495876 40.949521,32.2133416 C41.9896271,31.0439623 42.4352597,29.7718151 42.9022493,28.4174384 C43.0685338,28.0202037 43.2189242,27.6009584 43.3501305,27.1632555 C43.3709085,27.1089505 43.3919986,27.0545317 43.4134365,27 L43.3979294,27 C43.4183879,26.9284313 43.4383332,26.8563906 43.4577514,26.783893 C44.4328623,23.1433305 43.9140606,19.7917827 42.2989751,19.2980016 C40.6838897,18.8042204 38.3796218,21.2926691 37.1522488,24.8561074 C36.8436528,25.7520556 36.2531007,27.2231225 35.7218188,28.70716 Z" transform="matrix(1, 0, 0, 1, 0, 0)"/>
    </mask>
    <path d="M51.3546466,30.7709733 C54.0946926,33.3109411 58.9576372,35 64.5,35 C73.0604136,35 80,30.9705627 80,26 C80,23.5945242 78.374734,21.409462 75.7270345,19.7948452 L67.7174794,0 L13.2781489,0 L5.55024363,19.098775 C2.15739603,20.7497221 0,23.2285713 0,26 C0,30.9705627 6.93958638,35 15.5,35 C21.9026472,35 27.3985886,32.7458955 29.7624412,29.5298445 L30.9857809,26.3890194 C30.9952283,26.2600305 31,26.1303388 31,26 L31.1373025,26 L36.2007543,13 L44.4329185,13 L51.3546466,30.7709733 Z" id="path-9"/>
    <mask id="mask-10" maskContentUnits="userSpaceOnUse" maskUnits="objectBoundingBox" x="0" y="0" width="80" height="35" fill="white">
      <path d="M51.3546466,30.7709733 C54.0946926,33.3109411 58.9576372,35 64.5,35 C73.0604136,35 80,30.9705627 80,26 C80,23.5945242 78.374734,21.409462 75.7270345,19.7948452 L67.7174794,0 L13.2781489,0 L5.55024363,19.098775 C2.15739603,20.7497221 0,23.2285713 0,26 C0,30.9705627 6.93958638,35 15.5,35 C21.9026472,35 27.3985886,32.7458955 29.7624412,29.5298445 L30.9857809,26.3890194 C30.9952283,26.2600305 31,26.1303388 31,26 L31.1373025,26 L36.2007543,13 L44.4329185,13 L51.3546466,30.7709733 Z" transform="matrix(1, 0, 0, 1, 0, 0)"/>
    </mask>
    <ellipse id="path-11" cx="15.5" cy="26" rx="15.5" ry="9"/>
    <mask id="mask-12" maskContentUnits="userSpaceOnUse" maskUnits="objectBoundingBox" x="0" y="0" width="31" height="18" fill="white">
      <ellipse cx="15.5" cy="26" rx="15.5" ry="9" transform="matrix(1, 0, 0, 1, 0, 0)"/>
    </mask>
    <ellipse id="path-13" cx="65.5" cy="26" rx="15.5" ry="9"/>
    <mask id="mask-14" maskContentUnits="userSpaceOnUse" maskUnits="objectBoundingBox" x="0" y="0" width="31" height="18" fill="white">
      <ellipse cx="65.5" cy="26" rx="15.5" ry="9" transform="matrix(1, 0, 0, 1, 0, 0)"/>
    </mask>
    <path d="M26.2046495,0.0538086575 L6.94267986,13.8231819 C6.29974804,14.1871903 5.67819256,14.6090044 5.08500413,15.0893589 C3.87144693,16.0720782 2.87286501,17.2218712 2.09554972,18.4788798 C-0.838523151,23.2236144 -0.620036573,29.4959327 3.08935893,34.0766547 C6.44430979,38.219674 11.746511,39.8571499 16.6142224,38.7387516 L16.7906149,39.1682119 L17.8669206,38.38623 C19.356645,37.8878437 20.7840036,37.1190681 22.0766547,36.0722999 C22.98328,35.3381292 23.7699212,34.5107097 24.433955,33.6150003 L30,29.5710318 L30,50 L89,50 L89,29.733879 L93.1257818,32.731435 C93.8986979,33.9694631 94.8871223,35.1022743 96.0850041,36.0722999 C97.6713642,37.3569089 99.460601,38.2228457 101.319009,38.6841632 L101.913963,39.1164224 L102.042444,38.8427262 C106.771369,39.7435885 111.830752,38.0796331 115.0723,34.0766547 C119.741633,28.3105085 118.879478,19.8639588 113.160707,15.1579725 L113.19638,15.0819806 L92.5901954,0.170375903 C82.5981171,5.82597602 71.3688908,9 59.5,9 C47.5498104,9 36.2480783,5.78234462 26.2046495,0.0538086575 Z" id="path-15"/>
    <mask id="mask-16" maskContentUnits="userSpaceOnUse" maskUnits="objectBoundingBox" x="0" y="0" width="118.000894" height="49.9461913" fill="white">
      <path d="M26.2046495,0.0538086575 L6.94267986,13.8231819 C6.29974804,14.1871903 5.67819256,14.6090044 5.08500413,15.0893589 C3.87144693,16.0720782 2.87286501,17.2218712 2.09554972,18.4788798 C-0.838523151,23.2236144 -0.620036573,29.4959327 3.08935893,34.0766547 C6.44430979,38.219674 11.746511,39.8571499 16.6142224,38.7387516 L16.7906149,39.1682119 L17.8669206,38.38623 C19.356645,37.8878437 20.7840036,37.1190681 22.0766547,36.0722999 C22.98328,35.3381292 23.7699212,34.5107097 24.433955,33.6150003 L30,29.5710318 L30,50 L89,50 L89,29.733879 L93.1257818,32.731435 C93.8986979,33.9694631 94.8871223,35.1022743 96.0850041,36.0722999 C97.6713642,37.3569089 99.460601,38.2228457 101.319009,38.6841632 L101.913963,39.1164224 L102.042444,38.8427262 C106.771369,39.7435885 111.830752,38.0796331 115.0723,34.0766547 C119.741633,28.3105085 118.879478,19.8639588 113.160707,15.1579725 L113.19638,15.0819806 L92.5901954,0.170375903 C82.5981171,5.82597602 71.3688908,9 59.5,9 C47.5498104,9 36.2480783,5.78234462 26.2046495,0.0538086575 Z" transform="matrix(1, 0, 0, 1, 0, 0)"/>
    </mask>
    <path d="M31.8201933,18.2924338 C31.2233504,18.8021543 30.5795975,19.3338219 29.8914079,19.8952406 C28.7288609,20.8436355 26.449111,21.8577198 25.1255519,22.852171 C20.9012556,26.0260805 17.2306994,29 14.5,29 C7.59644063,29 0,23.4035594 0,16.5 C0,13.6862125 0.424841892,8.92669192 3.76530916,5.45981358 C5.83701457,3.30971002 7.9864421,2.0004242 8.94117682,1.20587639 C10.2239765,0.13830684 10.155295,1.13686838e-13 12.5,1.13686838e-13 C16.4361905,1.13686838e-13 17.9474474,7.81935728 20.2387145,10.6630157 C20.356634,10.809364 20.5365688,10.9211415 20.769502,11.0033304 C20.8352798,11.165965 20.9028846,11.3170429 20.972052,11.4527914 C21.5530447,12.5930539 23.9103938,14.9920412 23.9103938,14.9920412 C25.827979,17.1077982 28.8549106,18.2738024 31.8201933,18.2924338 Z" id="path-17"/>
    <mask id="mask-18" maskContentUnits="userSpaceOnUse" maskUnits="objectBoundingBox" x="0" y="0" width="31.8201933" height="29" fill="white">
      <path d="M31.8201933,18.2924338 C31.2233504,18.8021543 30.5795975,19.3338219 29.8914079,19.8952406 C28.7288609,20.8436355 26.449111,21.8577198 25.1255519,22.852171 C20.9012556,26.0260805 17.2306994,29 14.5,29 C7.59644063,29 0,23.4035594 0,16.5 C0,13.6862125 0.424841892,8.92669192 3.76530916,5.45981358 C5.83701457,3.30971002 7.9864421,2.0004242 8.94117682,1.20587639 C10.2239765,0.13830684 10.155295,1.13686838e-13 12.5,1.13686838e-13 C16.4361905,1.13686838e-13 17.9474474,7.81935728 20.2387145,10.6630157 C20.356634,10.809364 20.5365688,10.9211415 20.769502,11.0033304 C20.8352798,11.165965 20.9028846,11.3170429 20.972052,11.4527914 C21.5530447,12.5930539 23.9103938,14.9920412 23.9103938,14.9920412 C25.827979,17.1077982 28.8549106,18.2738024 31.8201933,18.2924338 Z" transform="matrix(1, 0, 0, 1, 0, 0)"/>
    </mask>
    <path d="M118.820193,18.2924338 C118.22335,18.8021543 117.579598,19.3338219 116.891408,19.8952406 C115.728861,20.8436355 113.449111,21.8577198 112.125552,22.852171 C107.901256,26.0260805 104.230699,29 101.5,29 C94.5964406,29 87,23.4035594 87,16.5 C87,13.6862125 87.4248419,8.92669192 90.7653092,5.45981358 C92.8370146,3.30971002 94.9864421,2.0004242 95.9411768,1.20587639 C97.2239765,0.13830684 97.155295,1.13686838e-13 99.5,1.13686838e-13 C103.436191,1.13686838e-13 104.947447,7.81935728 107.238714,10.6630157 C107.356634,10.809364 107.536569,10.9211415 107.769502,11.0033304 C107.83528,11.165965 107.902885,11.3170429 107.972052,11.4527914 C108.553045,12.5930539 110.910394,14.9920412 110.910394,14.9920412 C112.827979,17.1077982 115.854911,18.2738024 118.820193,18.2924338 Z" id="path-19"/>
    <mask id="mask-20" maskContentUnits="userSpaceOnUse" maskUnits="objectBoundingBox" x="0" y="0" width="31.8201933" height="29" fill="white">
      <path d="M118.820193,18.2924338 C118.22335,18.8021543 117.579598,19.3338219 116.891408,19.8952406 C115.728861,20.8436355 113.449111,21.8577198 112.125552,22.852171 C107.901256,26.0260805 104.230699,29 101.5,29 C94.5964406,29 87,23.4035594 87,16.5 C87,13.6862125 87.4248419,8.92669192 90.7653092,5.45981358 C92.8370146,3.30971002 94.9864421,2.0004242 95.9411768,1.20587639 C97.2239765,0.13830684 97.155295,1.13686838e-13 99.5,1.13686838e-13 C103.436191,1.13686838e-13 104.947447,7.81935728 107.238714,10.6630157 C107.356634,10.809364 107.536569,10.9211415 107.769502,11.0033304 C107.83528,11.165965 107.902885,11.3170429 107.972052,11.4527914 C108.553045,12.5930539 110.910394,14.9920412 110.910394,14.9920412 C112.827979,17.1077982 115.854911,18.2738024 118.820193,18.2924338 Z" transform="matrix(1, 0, 0, 1, 0, 0)"/>
    </mask>
    <style bx:fonts="Bellota">@import url(https://fonts.googleapis.com/css2?family=Bellota%3Aital%2Cwght%400%2C300%3B0%2C400%3B0%2C700%3B1%2C300%3B1%2C400%3B1%2C700&amp;display=swap);</style>
  </defs>
  <g id="Page-1" stroke="none" stroke-width="1" fill="none" fill-rule="evenodd">
    <g id="Tony-Stark" transform="translate(-168.000000, -93.000000)">
      <g transform="translate(168.000000, 93.000000)">
        <g id="Head-Copy">
          <path d="M111.665624,9.51762635 C112.032188,9.50775899 112.401562,9.5149944 112.773332,9.53896691 L121.387249,20.9806791 L130.069129,21.1169565 C133.499193,25.5584712 136.548748,31.0793859 138.824006,37.3306072 C143.179603,49.2975121 143.641213,61.0381635 140.750883,68.9007602 C143.16362,70.0520482 145.422034,71.3529893 145.910549,72.3706634 C148.679971,75.2725591 150.264182,79.4721531 149.956869,84.1435583 C149.380764,92.9008292 142.375379,100 134.309905,100 C133.457602,100 132.627568,99.9207252 131.825293,99.7685961 C117.999191,117.707191 97.8875215,129 75.5,129 C53.2121047,129 33.1798509,117.807475 19.359662,100.007685 C19.2847521,99.9112045 19.2100247,99.8145297 19.1354804,99.7176615 C18.2545812,99.90299 17.338999,100 16.3961669,100 C8.33069254,100 1.3253081,92.9008292 0.749202792,84.1435583 C0.439844916,79.441066 2.04726994,75.2166855 4.85097003,72.3129018 C4.86669087,71.600899 6.10465158,70.8844799 7.53561467,70.1637837 C8.12155607,69.8086181 8.73639782,69.4990414 9.37654648,69.2392553 C6.34625623,61.3775137 6.75744114,49.4704811 11.1759939,37.3306072 C13.6286462,30.5920003 16.98104,24.7020182 20.7399135,20.0979387 L28.2102175,19.9806791 L35.9708674,9.67235337 L35.9788795,9.66171106 L36.0197681,9.66458975 L47.063999,10.4421402 L41.4523233,10.0470596 C39.7366119,9.49047281 37.92273,9.37871131 36.0606567,9.66746844 L47.063999,10.4421402 L51.2176917,6.70913405 L55.3713843,2.97612791 L59.4782452,5.46657546 L63.585106,7.957023 L69.3498343,4.20442695 L75.1145627,0.451830889 L80.879291,4.20442695 L86.6440193,7.957023 L90.5288256,5.6012319 L94.4136318,3.2454408 L102.421354,10.4421402 L108.69491,10.0004611 C109.127965,9.86681304 109.567143,9.76124103 110.011648,9.68303946 L111.665624,9.51762634 Z" id="Head-Outline" transform="matrix(1, 0, 0, 1, 0, 0)" mask="url(#mask-2)" stroke-width="8" fill="#EEC6B4" style="stroke: rgb(0, 0, 0);"/>
          <path d="M 112.147 9.75 C 112.215 9.753 112.284 9.757 112.352 9.762 L 120.966 21.203 L 129.648 21.34 C 133.078 25.781 136.128 31.302 138.403 37.553 C 139.093 39.45 139.686 41.342 140.183 43.213 C 140.431 44.263 140.651 45.328 140.841 46.409 C 142.368 55.065 141.794 63.481 139.55 70.854 C 132.637 72.669 126.614 77.475 123.038 83.669 C 122.395 78.515 121.56 73.261 120.526 67.942 C 118.427 57.142 115.666 46.898 112.413 37.461 C 100.733 41.161 87.753 43.223 74.079 43.223 C 60.098 43.223 46.841 41.067 34.96 37.209 C 34.896 39.454 34.874 41.742 34.895 44.067 C 32.567 51.618 30.556 59.615 28.937 67.942 C 27.928 73.134 27.109 78.263 26.472 83.298 C 22.95 76.806 16.761 71.737 9.559 69.631 C 9.69 69.572 9.822 69.516 9.955 69.462 C 6.925 61.6 7.336 49.693 11.755 37.553 C 14.207 30.815 17.56 24.925 21.319 20.321 L 26.724 14.802 L 36.548 9.954 L 46.643 10.665 L 46.715 10.6 L 40.736 10.179 C 40.834 10.207 40.933 10.238 41.031 10.27 L 46.643 10.665 L 46.715 10.6 L 47.643 10.665 L 51.796 6.932 L 55.547 3.561 L 59.057 5.689 L 63.164 8.18 L 63.646 7.866 L 64.164 8.18 L 69.929 4.427 L 75.193 1 L 80.458 4.427 L 86.223 8.18 L 86.741 7.866 L 87.223 8.18 L 91.108 5.824 L 94.395 3.83 L 102 10.665 L 102.927 10.6 L 103 10.665 L 109.274 10.223 C 109.707 10.09 110.146 9.984 110.59 9.906 L 112.147 9.75 Z" id="Combined-Shape" transform="matrix(1, 0, 0, 1, 0, 0)" mask="url(#mask-4)" stroke-width="8" style="stroke: rgb(0, 0, 0); fill: rgb(0, 0, 0);"/>
          <g id="Eyes" transform="translate(38.000000, 74.000000)" fill="#792E0F">
            <circle id="Oval-36" cx="7.5" cy="7.5" r="7.5" style="fill: rgb(0, 0, 0);"/>
            <circle id="Oval-36" cx="66.5" cy="7.5" r="7.5" style="fill: rgb(0, 0, 0);"/>
          </g>
          <g id="Ears" transform="translate(13.000000, 78.000000)" fill="#792E0F">
            <path d="M1.5240273,1.0042046 C3.02614559,0.478052566 4.7634828,0.882882245 5.86598318,2.15116385 L8.49569575,5.17630211 C9.83813138,6.72059764 9.77998069,9.00641895 8.43804545,10.4839667 C7.69309637,10.815651 6.86807669,11 6,11 C2.6862915,11 0,8.3137085 0,5 C0,3.46531921 0.576183275,2.06521324 1.5240273,1.0042046 Z" id="Combined-Shape" style="fill: rgb(0, 0, 0);"/>
            <path d="M117.524027,1.0042046 C119.026146,0.478052566 120.763483,0.882882245 121.865983,2.15116385 L124.495696,5.17630211 C125.838131,6.72059764 125.779981,9.00641895 124.438045,10.4839667 C123.693096,10.815651 122.868077,11 122,11 C118.686292,11 116,8.3137085 116,5 C116,3.46531921 116.576183,2.06521324 117.524027,1.0042046 Z" id="Combined-Shape" transform="translate(120.736989, 5.889819) scale(-1, 1) translate(-120.736989, -5.889819) " style="fill: rgb(0, 0, 0);"/>
          </g>
          <g id="Beard-and-Mouth" transform="translate(52.000000, 87.000000)" stroke="#792E0F" stroke-width="4">
            <path d="M23,19 C29.627417,19 35,12.7614237 35,10 C35,7.23857625 29.627417,6 23,6 C16.372583,6 11,7.23857625 11,10 C11,12.7614237 16.372583,19 23,19 Z" id="Oval-47" transform="matrix(1, 0, 0, 1, 0, 0)" mask="url(#mask-6)" style="fill: rgb(255, 255, 255); stroke: rgb(0, 0, 0);"/>
            <path d="M11.3610146,10.0800116 C14.4991964,8.82388671 18.5620366,8 23,8 C27.5663037,8 31.7354744,8.87222726 34.9089091,10.1900632 C37.9941562,12.2906607 41.0258598,14 42,14 C44.209139,14 46,12.209139 46,10 C46,8.80192129 45.4732719,7.72686652 44.6387559,6.99377591 C44.455237,6.72075191 44.2512719,6.45732025 44.0247797,6.20448363 C40.0809439,1.80192171 29.1422248,-5.68434189e-14 22.5,-5.68434189e-14 C16.997005,-5.68434189e-14 7.91593602,2.73540239 3.3107488,6.05916134 C1.43006372,6.38580338 0,8.02589705 0,10 C0,12.209139 1.790861,14 4,14 C5.26156375,14 8.66953342,12.1115066 11.3610146,10.0800116 Z M35.7218188,28.70716 C34.5496161,29.5738186 33.3186518,29.9168569 32.2188471,29.5595086 C30.1723102,28.8945485 29.1838418,26.0006206 29.573991,22.5184584 C27.5375149,22.8293091 25.320015,23 23,23 C20.679985,23 18.4624851,22.8293091 16.426009,22.5184584 C16.8161582,26.0006206 15.8276898,28.8945485 13.7811529,29.5595086 C12.1215198,30.0987561 10.1632157,29.0431134 8.55886413,27 L8.55488963,27 C7.63866587,25.2223652 6.60334632,23.2788139 6.45775138,22.8561074 C5.23037829,19.2926691 3.9261104,18.8042204 2.31102499,19.2980016 C0.695939581,19.7917827 0.17713779,23.1433305 1.15224876,26.783893 C1.48204071,28.0151664 1.96386931,29.1146544 2.52941143,30.0085727 C2.689205,30.5774942 2.93210896,31.1286796 3.37338888,31.6603465 C7.5652461,36.7108182 15.3033645,40 22.5,40 C29.4305045,40 36.7368605,36.9495876 40.949521,32.2133416 C41.9896271,31.0439623 42.4352597,29.7718151 42.9022493,28.4174384 C43.0685338,28.0202037 43.2189242,27.6009584 43.3501305,27.1632555 C43.3709085,27.1089505 43.3919986,27.0545317 43.4134365,27 L43.3979294,27 C43.4183879,26.9284313 43.4383332,26.8563906 43.4577514,26.783893 C44.4328623,23.1433305 43.9140606,19.7917827 42.2989751,19.2980016 C40.6838897,18.8042204 38.3796218,21.2926691 37.1522488,24.8561074 C36.8436528,25.7520556 36.2531007,27.2231225 35.7218188,28.70716 Z" id="Beard" transform="matrix(1, 0, 0, 1, 0, 0)" mask="url(#mask-8)" style="fill: rgb(0, 0, 0); stroke: rgb(0, 0, 0);"/>
          </g>
        </g>
        <g id="Pants-Copy" transform="translate(35.000000, 163.000000)" stroke="#792E0F">
          <path d="M51.3546466,30.7709733 C54.0946926,33.3109411 58.9576372,35 64.5,35 C73.0604136,35 80,30.9705627 80,26 C80,23.5945242 78.374734,21.409462 75.7270345,19.7948452 L67.7174794,0 L13.2781489,0 L5.55024363,19.098775 C2.15739603,20.7497221 0,23.2285713 0,26 C0,30.9705627 6.93958638,35 15.5,35 C21.9026472,35 27.3985886,32.7458955 29.7624412,29.5298445 L30.9857809,26.3890194 C30.9952283,26.2600305 31,26.1303388 31,26 L31.1373025,26 L36.2007543,13 L44.4329185,13 L51.3546466,30.7709733 Z" id="Pants" transform="matrix(1, 0, 0, 1, 0, 0)" mask="url(#mask-10)" stroke-width="8" style="stroke: rgb(0, 0, 0); fill: rgb(26, 53, 80);"/>
          <ellipse id="Oval-32" cx="15.5" cy="26" rx="15.5" ry="9" transform="matrix(1, 0, 0, 1, 0, 0)" mask="url(#mask-12)" stroke-width="8" style="fill: rgb(51, 76, 99); stroke: rgb(17, 27, 37);"/>
          <ellipse id="Oval-32" cx="65.5" cy="26" rx="15.5" ry="9" transform="matrix(-1, 0, 0, 1, 131, 0)" mask="url(#mask-14)" stroke-width="8" style="fill: rgb(51, 76, 99); stroke: rgb(17, 27, 37);"/>
          <g id="Pockets" transform="translate(13.000000, 1.000000)" stroke-width="3" stroke-linecap="square">
            <path d="M0.610006568,8.59905036 C0.610006568,8.59905036 5.03373068,8.75583198 7.24559274,7.83422279 C8.08089114,7.48618179 9.79933037,7.05399971 11.2821491,5.63233828 C12.9736264,4.01062414 14.3899934,1.40094964 14.3899934,1.40094964" id="Line" transform="translate(7.500000, 5.005052) rotate(-354.000000) translate(-7.500000, -5.005052) " style="stroke: rgb(109, 109, 109);"/>
            <path d="M40.6100066,8.59905036 C40.6100066,8.59905036 45.0337307,8.75583198 47.2455927,7.83422279 C48.0808911,7.48618179 49.7993304,7.05399971 51.2821491,5.63233828 C52.9736264,4.01062414 54.3899934,1.40094964 54.3899934,1.40094964" id="Line" transform="translate(47.500000, 5.005052) scale(-1, 1) rotate(-354.000000) translate(-47.500000, -5.005052) " style="stroke: rgb(109, 109, 109);"/>
          </g>
        </g>
        <g id="Torso-Copy" transform="translate(16.000000, 117.000000)" stroke="#792E0F" stroke-width="8">
          <path d="M26.2046495,0.0538086575 L6.94267986,13.8231819 C6.29974804,14.1871903 5.67819256,14.6090044 5.08500413,15.0893589 C3.87144693,16.0720782 2.87286501,17.2218712 2.09554972,18.4788798 C-0.838523151,23.2236144 -0.620036573,29.4959327 3.08935893,34.0766547 C6.44430979,38.219674 11.746511,39.8571499 16.6142224,38.7387516 L16.7906149,39.1682119 L17.8669206,38.38623 C19.356645,37.8878437 20.7840036,37.1190681 22.0766547,36.0722999 C22.98328,35.3381292 23.7699212,34.5107097 24.433955,33.6150003 L30,29.5710318 L30,50 L89,50 L89,29.733879 L93.1257818,32.731435 C93.8986979,33.9694631 94.8871223,35.1022743 96.0850041,36.0722999 C97.6713642,37.3569089 99.460601,38.2228457 101.319009,38.6841632 L101.913963,39.1164224 L102.042444,38.8427262 C106.771369,39.7435885 111.830752,38.0796331 115.0723,34.0766547 C119.741633,28.3105085 118.879478,19.8639588 113.160707,15.1579725 L113.19638,15.0819806 L92.5901954,0.170375903 C82.5981171,5.82597602 71.3688908,9 59.5,9 C47.5498104,9 36.2480783,5.78234462 26.2046495,0.0538086575 Z" id="Shirt" transform="matrix(1, 0, 0, 1, 0, 0)" mask="url(#mask-16)" style="fill: rgb(58, 65, 77); stroke: rgb(41, 44, 55);"/>
          <g id="Hands" transform="translate(0.000000, 11.000000)" fill="#EEC6B4">
            <path d="M31.8201933,18.2924338 C31.2233504,18.8021543 30.5795975,19.3338219 29.8914079,19.8952406 C28.7288609,20.8436355 26.449111,21.8577198 25.1255519,22.852171 C20.9012556,26.0260805 17.2306994,29 14.5,29 C7.59644063,29 0,23.4035594 0,16.5 C0,13.6862125 0.424841892,8.92669192 3.76530916,5.45981358 C5.83701457,3.30971002 7.9864421,2.0004242 8.94117682,1.20587639 C10.2239765,0.13830684 10.155295,1.13686838e-13 12.5,1.13686838e-13 C16.4361905,1.13686838e-13 17.9474474,7.81935728 20.2387145,10.6630157 C20.356634,10.809364 20.5365688,10.9211415 20.769502,11.0033304 C20.8352798,11.165965 20.9028846,11.3170429 20.972052,11.4527914 C21.5530447,12.5930539 23.9103938,14.9920412 23.9103938,14.9920412 C25.827979,17.1077982 28.8549106,18.2738024 31.8201933,18.2924338 Z" id="Combined-Shape" transform="matrix(1, 0, 0, 1, 0, 0)" mask="url(#mask-18)" style="stroke: rgb(0, 0, 0);"/>
            <path d="M118.820193,18.2924338 C118.22335,18.8021543 117.579598,19.3338219 116.891408,19.8952406 C115.728861,20.8436355 113.449111,21.8577198 112.125552,22.852171 C107.901256,26.0260805 104.230699,29 101.5,29 C94.5964406,29 87,23.4035594 87,16.5 C87,13.6862125 87.4248419,8.92669192 90.7653092,5.45981358 C92.8370146,3.30971002 94.9864421,2.0004242 95.9411768,1.20587639 C97.2239765,0.13830684 97.155295,1.13686838e-13 99.5,1.13686838e-13 C103.436191,1.13686838e-13 104.947447,7.81935728 107.238714,10.6630157 C107.356634,10.809364 107.536569,10.9211415 107.769502,11.0033304 C107.83528,11.165965 107.902885,11.3170429 107.972052,11.4527914 C108.553045,12.5930539 110.910394,14.9920412 110.910394,14.9920412 C112.827979,17.1077982 115.854911,18.2738024 118.820193,18.2924338 Z" id="Combined-Shape" transform="matrix(-1, 0, 0, 1, 205.8201904296875, 0)" mask="url(#mask-20)" style="stroke: rgb(0, 0, 0);"/>
          </g>
        </g>
      </g>
    </g>
  </g>
  <title>Arc Reactor</title>
  <desc>Created with Sketch.</desc>
  <g id="g-1" stroke="none" stroke-width="1" fill="none" fill-rule="evenodd" transform="matrix(1, 0, 0, 1, 10.283483, -2.975446)">
    <g id="g-2" transform="translate(-235.000000, -226.000000)">
      <g id="Arc-Reactor" transform="translate(235.000000, 226.000000)">
        <circle id="Oval-48" fill="#59D7E3" cx="64.85" cy="145.288" r="7.044"/>
        <circle id="Oval-49" fill="#E2F8F8" cx="64.775" cy="145.358" r="3.348"/>
      </g>
    </g>
  </g>
  <text style="fill: rgb(89, 255, 211); font-family: Bellota; font-size: 8px; white-space: pre;" x="92.085" y="141.385">A</text>
</svg>